PathFileType	4	(X/Y/Z)	/Users/itak/Documents/Research/Walk-IL/dataset/trc/00417_00012.trc
DataRate	CameraRate	NumFrames	NumMarkers	Units	OrigDataRate	OrigDataStartFrame	OrigNumFrames
100.000000	100.000000	4	54	mm	100.000000	643	735
Frame#	Time	RPSI			LPSI			L3			STRN			T10			C7			CLAV			RBAK			LBAK			LSHO			LUPA			LAEL			LAOL			LWTS			LWPS			LFRA			LIFD			LHPS			LHTS			RSHO			RUPA			RAEL			RAOL			RWTS			RWPS			RFRA			RIFD			RHPS			RBHD			LFHD			RFHD			LBHD			LHIP			RHIP			RASI			LASI			LKNE			LTHI			LANK			LTIP			LTOE			LMT1			LMT5			LHEE			RKNE			RTHI			RANK			RTIP			RTOE			RMT1			RMT5			RHEE			RHTS			*53			
		X1	Y1	Z1	X2	Y2	Z2	X3	Y3	Z3	X4	Y4	Z4	X5	Y5	Z5	X6	Y6	Z6	X7	Y7	Z7	X8	Y8	Z8	X9	Y9	Z9	X10	Y10	Z10	X11	Y11	Z11	X12	Y12	Z12	X13	Y13	Z13	X14	Y14	Z14	X15	Y15	Z15	X16	Y16	Z16	X17	Y17	Z17	X18	Y18	Z18	X19	Y19	Z19	X20	Y20	Z20	X21	Y21	Z21	X22	Y22	Z22	X23	Y23	Z23	X24	Y24	Z24	X25	Y25	Z25	X26	Y26	Z26	X27	Y27	Z27	X28	Y28	Z28	X29	Y29	Z29	X30	Y30	Z30	X31	Y31	Z31	X32	Y32	Z32	X33	Y33	Z33	X34	Y34	Z34	X35	Y35	Z35	X36	Y36	Z36	X37	Y37	Z37	X38	Y38	Z38	X39	Y39	Z39	X40	Y40	Z40	X41	Y41	Z41	X42	Y42	Z42	X43	Y43	Z43	X44	Y44	Z44	X45	Y45	Z45	X46	Y46	Z46	X47	Y47	Z47	X48	Y48	Z48	X49	Y49	Z49	X50	Y50	Z50	X51	Y51	Z51	X52	Y52	Z52	X53	Y53	Z53	X54	Y54	Z54	

644	6.43	139.1323699951172	979.6707763671875	590.284423828125	269.220458984375	970.697021484375	571.4318237304688	201.5292358398438	1051.33447265625	575.4939575195312	220.6891021728516	1220.94287109375	807.40576171875	205.1853637695312	1154.818359375	559.53173828125	216.0816040039062	1406.232299804688	584.8484497070312	217.6703796386719	1336.0810546875	746.19873046875	146.2628173828125	1258.716796875	551.8272705078125	317.8687133789062	1368.0126953125	568.50390625	371.0325622558594	1387.720336914062	651.8804321289062	441.9908142089844	1270.728393554688	635.2138671875	476.1470947265625	1078.947998046875	678.0521850585938	413.7335510253906	1047.078979492188	626.4353637695312	445.3187255859375	930.168701171875	848.7832641601562	505.8702697753906	894.6500244140625	805.9237060546875	489.9466552734375	991.5106201171875	726.27392578125	451.3929443359375	765.3931884765625	925.2095947265625	499.2379760742188	823.2410278320312	856.6187133789062	466.0270080566406	847.9537963867188	905.250732421875	61.90487670898438	1389.799926757812	649.2601928710938	3.018462419509888	1326.036376953125	637.4312744140625	-42.95077133178711	1066.255859375	639.8882446289062	50.44118118286133	1052.93408203125	623.6766357421875	-23.30751991271973	867.6829833984375	794.08203125	-82.95880889892578	851.7864379882812	749.6968994140625	-61.06218719482422	1003.391906738281	670.3312377929688	-39.26983642578125	694.3326416015625	816.84814453125	-84.13467407226562	765.9718627929688	766.9141845703125	120.8296585083008	1595.7421875	663.2648315429688	307.2251281738281	1606.919555664062	728.175048828125	194.3955230712891	1611.567993164062	774.5581665039062	262.4544982910156	1586.775512695312	587.4617309570312	390.6446838378906	964.3571166992188	646.3439331054688	33.74756622314453	961.45947265625	685.9940795898438	105.8815765380859	978.8773193359375	813.1001586914062	365.2120056152344	971.5538330078125	766.4674072265625	366.2688903808594	474.4881591796875	712.9071655273438	382.0012817382812	617.0672607421875	701.4752807617188	322.2201843261719	41.64162826538086	615.3473510742188	354.7901611328125	242.1538391113281	666.459228515625	253.2097015380859	41.15011978149414	829.2346801757812	225.3285369873047	42.69730758666992	746.421142578125	330.637939453125	39.46305084228516	741.9642333984375	267.7594299316406	39.15225982666016	575.7550048828125	69.69132995605469	474.9122314453125	747.4638671875	46.29711532592773	738.8897705078125	774.7130126953125	99.10181427001953	51.9445915222168	682.0372314453125	84.84226989746094	347.8082275390625	750.9396362304688	179.1825256347656	40.540771484375	853.8189086914062	203.1142578125	45.55330276489258	777.0084228515625	100.2963256835938	43.93085479736328	767.0365600585938	144.8310699462891	39.78104400634766	604.5736083984375	-46.94078826904297	766.3438720703125	823.3471069335938	nan	nan	nan	
645	6.44	138.728515625	979.6723022460938	591.4371337890625	268.6998901367188	970.5703735351562	572.3098754882812	200.9619598388672	1051.240844726562	576.4782104492188	221.0324554443359	1220.717041015625	808.547119140625	204.526123046875	1154.748291015625	560.8189086914062	215.6300659179688	1406.193481445312	586.0709228515625	217.7989196777344	1335.888427734375	747.3892211914062	145.6078948974609	1258.649169921875	553.3838500976562	317.3630981445312	1367.806640625	569.38623046875	370.8815002441406	1387.446533203125	652.5509643554688	441.6655578613281	1270.397827148438	635.3841552734375	475.5450439453125	1078.159912109375	677.6918334960938	412.8487243652344	1046.8388671875	626.1083984375	444.4100952148438	926.2637939453125	846.25341796875	504.6564025878906	891.2088623046875	802.5549926757812	489.0836791992188	989.6962890625	724.83740234375	449.7080078125	760.0596923828125	919.4927368164062	497.6085815429688	818.8599853515625	851.867431640625	464.7757568359375	842.869140625	901.0726318359375	61.68087005615234	1389.737426757812	651.0398559570312	2.649183988571167	1325.982543945312	639.5484619140625	-44.26752853393555	1066.348266601562	643.2710571289062	49.01983642578125	1052.529052734375	626.6769409179688	-24.58793258666992	869.3173828125	799.3865356445312	-84.49134063720703	853.1312255859375	755.2823486328125	-62.39542388916016	1003.804626464844	674.3359985351562	-41.57687759399414	696.5342407226562	824.7034301757812	-86.02780151367188	767.6231689453125	773.8114013671875	120.2413711547852	1595.406616210938	664.8322143554688	306.7066650390625	1607.00048828125	729.5388793945312	193.9450531005859	1611.283447265625	776.0746459960938	261.8872375488281	1587.073608398438	588.7764282226562	390.3188171386719	964.2264404296875	646.9954833984375	33.31327056884766	961.1409912109375	686.8624267578125	105.8533248901367	978.9072875976562	814.4638061523438	365.1195983886719	971.4014892578125	767.3104248046875	366.1832580566406	474.4531860351562	713.0342407226562	381.8866271972656	617.0198974609375	701.7388916015625	322.199462890625	41.60001373291016	615.3052368164062	354.7701416015625	242.1502838134766	666.4194946289062	253.2702026367188	41.197509765625	829.1947021484375	225.3474884033203	42.71294021606445	746.3915405273438	330.6356811523438	39.46461868286133	741.93896484375	267.7313537597656	39.07625579833984	575.708740234375	68.97004699707031	474.8872375488281	746.182373046875	46.02810287475586	738.6378173828125	774.9796752929688	99.06607818603516	51.8717155456543	681.9659423828125	84.32667541503906	347.846923828125	749.8402099609375	179.1879272460938	40.55850601196289	853.7587280273438	203.1206665039062	45.53836441040039	776.9880981445312	100.3399505615234	43.93448257446289	767.0067749023438	144.8047332763672	39.62771224975586	604.5342407226562	-48.80400466918945	768.6804809570312	830.1358032226562	nan	nan	nan	
646	6.45	138.3403625488281	979.7210083007812	592.5320434570312	268.2271728515625	970.507080078125	573.1469116210938	200.4607849121094	1051.125244140625	577.4248657226562	221.311767578125	1220.510986328125	809.6181030273438	203.9082794189453	1154.66796875	562.0023803710938	215.1918182373047	1406.145263671875	587.2169799804688	217.9056396484375	1335.7158203125	748.5127563476562	144.9797058105469	1258.577880859375	554.867431640625	316.8869323730469	1367.603881835938	570.2201538085938	370.7243041992188	1387.185668945312	653.1754760742188	441.3524475097656	1270.075317382812	635.56005859375	474.8697509765625	1077.41650390625	677.33251953125	411.9033813476562	1046.607666015625	625.8286743164062	443.5603942871094	922.3533935546875	843.6434936523438	503.4779968261719	887.7750854492188	799.0325927734375	488.219970703125	987.8966064453125	723.3486328125	448.3739929199219	754.815673828125	913.718505859375	496.10009765625	814.54638671875	846.9627685546875	463.6638793945312	837.839599609375	896.76318359375	61.45780563354492	1389.67919921875	652.709228515625	2.296671867370605	1325.924438476562	641.5519409179688	-45.47225189208984	1066.438720703125	646.5823974609375	47.72692489624023	1052.133056640625	629.6753540039062	-25.86209869384766	870.8690185546875	804.5035400390625	-85.94775390625	854.4442138671875	760.6747436523438	-63.64466857910156	1004.206909179688	678.2308349609375	-43.84749603271484	698.6889038085938	832.2609252929688	-87.86824035644531	769.2542114257812	780.4420166015625	119.6807022094727	1595.089721679688	666.3375854492188	306.21044921875	1607.046875	730.8914794921875	193.48291015625	1610.963500976562	777.5365600585938	261.3245544433594	1587.348510742188	590.072509765625	390.027587890625	964.12060546875	647.6032104492188	33.03644943237305	960.8822631835938	687.800048828125	105.8728179931641	978.9733276367188	815.7808837890625	365.0162048339844	971.2360229492188	768.1514892578125	366.1082763671875	474.4193115234375	713.1815795898438	381.769775390625	616.96630859375	701.98291015625	322.189697265625	41.55788421630859	615.263916015625	354.7521362304688	242.1457214355469	666.39208984375	253.3316650390625	41.24324035644531	829.1541137695312	225.3710632324219	42.73128128051758	746.3641357421875	330.6396179199219	39.46353530883789	741.9169311523438	267.7127380371094	39.0054931640625	575.6610717773438	68.31158447265625	474.8578186035156	745.0498046875	45.88291931152344	738.4296264648438	775.3034057617188	99.02007293701172	51.79661178588867	681.8980712890625	83.85515594482422	347.8823547363281	748.834228515625	179.2053070068359	40.5929069519043	853.691162109375	203.1192779541016	45.52708053588867	776.9656982421875	100.3736114501953	43.93716812133789	766.9776000976562	144.7741088867188	39.48531341552734	604.5006103515625	-50.64907073974609	770.9423828125	836.670654296875	nan	nan	nan	
647	6.46	137.9786071777344	979.8338012695312	593.5779418945312	267.8057250976562	970.5255126953125	573.946044921875	200.0330352783203	1050.99560546875	578.3623657226562	221.5263671875	1220.333374023438	810.6219482421875	203.3380584716797	1154.582885742188	563.0776977539062	214.7735290527344	1406.09130859375	588.291748046875	217.9893341064453	1335.570068359375	749.5719604492188	144.3719482421875	1258.506713867188	556.2697143554688	316.4350280761719	1367.416625976562	571.0089721679688	370.5592956542969	1386.950561523438	653.7603149414062	441.0469360351562	1269.772094726562	635.753662109375	474.1188659667969	1076.739990234375	676.9857177734375	410.9104614257812	1046.406494140625	625.5979614257812	442.771484375	918.4601440429688	840.9583129882812	502.3329467773438	884.3798828125	795.3745727539062	487.3530883789062	986.135986328125	721.8206176757812	447.3285522460938	749.6608276367188	907.8702392578125	494.7207946777344	810.3272705078125	841.9183959960938	462.65966796875	832.872314453125	892.32958984375	61.23744964599609	1389.6328125	654.2745361328125	1.959871172904968	1325.870849609375	643.4453125	-46.56782150268555	1066.533447265625	649.820068359375	46.55438232421875	1051.763671875	632.661376953125	-27.11920547485352	872.3379516601562	809.4163818359375	-87.31275177001953	855.7239379882812	765.8770141601562	-64.80374908447266	1004.604614257812	682.0155639648438	-46.05127716064453	700.7791748046875	839.4840087890625	-89.63529968261719	770.8535766601562	786.786376953125	119.1555786132812	1594.800537109375	667.7828369140625	305.7425842285156	1607.063354492188	732.2326049804688	193.0155944824219	1610.620849609375	778.9450073242188	260.7664794921875	1587.591674804688	591.3570556640625	389.7685852050781	964.0491333007812	648.1708984375	32.93762588500977	960.7486572265625	688.861083984375	105.9513626098633	979.0612182617188	817.0302734375	364.9055480957031	971.0421142578125	768.9695434570312	366.0499267578125	474.3842163085938	713.3384399414062	381.65869140625	616.9095458984375	702.1935424804688	322.190185546875	41.51038360595703	615.2235107421875	354.739013671875	242.1398773193359	666.3746337890625	253.3951873779297	41.28854370117188	829.1111450195312	225.3988189697266	42.75194549560547	746.339599609375	330.6541137695312	39.4608268737793	741.8984375	267.7059020996094	38.93881988525391	575.612548828125	67.70168304443359	474.8274536132812	744.0558471679688	45.83585739135742	738.2655029296875	775.688720703125	98.96577453613281	51.71689605712891	681.8350219726562	83.40737152099609	347.9185485839844	747.9154052734375	179.2310943603516	40.64632415771484	853.6141967773438	203.1089172363281	45.52178192138672	776.939208984375	100.3913345336914	43.93677139282227	766.949462890625	144.7349090576172	39.35425567626953	604.4716186523438	-52.43609237670898	773.1145629882812	842.9415283203125	nan	nan	nan	
